<svg   width="40" height="40" viewBox="0 0 57 57" fill="none" xmlns="http://www.w3.org/2000/svg">
<path d="M48.4251 33.4421L41.1804 38.5672L31.6281 17.0305L32.3476 16.6046L35.448 14.9194C36.647 14.2674 38.0644 14.0455 39.3862 14.2559C39.8053 14.3196 40.2172 14.4319 40.6151 14.5911L54.1819 19.945C54.9165 20.2354 55.5648 20.7447 56.0554 21.4171C56.5461 22.0895 56.8601 22.8989 56.9629 23.7564C57.0658 24.6139 56.9536 25.4862 56.6385 26.2775C56.3235 27.0689 55.8179 27.7485 55.1773 28.2418L48.4251 33.4421Z" fill="url(#paint0_linear_650_33)"/>
<path d="M10.8241 36.9807C8.92828 35.5887 7.89076 34.542 6.75887 32.6497L0.729474 21.4576C0.0305656 19.8878 -0.0635558 18.4922 0.0305629 16.6245C0.282284 15.0031 0.973964 13.6075 2.10982 12.2624L10.535 3.20135C11.683 1.96656 13.0948 1.04485 14.6502 0.514711C16.2056 -0.015431 17.8586 -0.138293 19.4683 0.156553C21.0781 0.451399 22.5969 1.15522 23.8955 2.20812C25.1942 3.26103 26.2341 4.63181 26.9268 6.20375L41.1804 38.5672L16.3836 38.5672C14.4617 38.38 13.4242 38.38 10.8241 36.9807Z" fill="url(#paint1_linear_650_33)"/>
<path d="M44.2878 57C44.2878 52.6378 42.5616 48.4542 39.4889 45.3697C36.4162 42.2851 32.2487 40.5522 27.9032 40.5522C23.5578 40.5522 19.3903 42.2851 16.3176 45.3697C13.2449 48.4542 11.5187 52.6378 11.5187 57H44.2878Z" fill="url(#paint2_linear_650_33)"/>
<defs>
<linearGradient id="paint0_linear_650_33" x1="-50.2645" y1="-1.6967" x2="106.259" y2="151.294" gradientUnits="userSpaceOnUse">
<stop offset="0.0929831" stop-color="#67B9EF"/>
<stop offset="0.833333" stop-color="#A4D5F5"/>
<stop offset="1" stop-color="#ACD9F6"/>
</linearGradient>
<linearGradient id="paint1_linear_650_33" x1="-36" y1="-13" x2="77.9585" y2="68.1305" gradientUnits="userSpaceOnUse">
<stop offset="0.178421" stop-color="#1844C8"/>
<stop offset="0.604256" stop-color="#4F76EA"/>
<stop offset="1" stop-color="#4F76EA" stop-opacity="0"/>
</linearGradient>
<linearGradient id="paint2_linear_650_33" x1="27.9032" y1="40.5522" x2="27.663" y2="81.2958" gradientUnits="userSpaceOnUse">
<stop stop-color="#FCAA67"/>
<stop offset="0.693284" stop-color="#FAA959" stop-opacity="0.648751"/>
<stop offset="1" stop-color="#FBBE81" stop-opacity="0"/>
</linearGradient>
</defs>
</svg>
